<mxfile host="app.diagrams.net" agent="Mozilla/5.0 (Windows NT 10.0; Win64; x64) AppleWebKit/537.36 (KHTML, like Gecko) Chrome/119.0.0.0 Safari/537.36" version="24.7.16">
  <diagram name="Page-1" id="GvEIcpoK_pV5hVDnuA9m">
    <mxGraphModel dx="1114" dy="610" grid="1" gridSize="10" guides="1" tooltips="1" connect="1" arrows="1" fold="1" page="1" pageScale="1" pageWidth="850" pageHeight="1100" math="0" shadow="0">
      <root>
        <mxCell id="0" />
        <mxCell id="1" parent="0" />
        <mxCell id="2SimE3exGpaS9pDIr7dA-2" value="Thuoc" style="swimlane;whiteSpace=wrap;html=1;" vertex="1" parent="1">
          <mxGeometry x="200" y="300" width="160" height="180" as="geometry" />
        </mxCell>
        <mxCell id="2SimE3exGpaS9pDIr7dA-13" value="{&lt;div&gt;&lt;div style=&quot;&quot;&gt;&lt;span style=&quot;background-color: initial;&quot;&gt;&amp;nbsp; maThuoc: String,&lt;/span&gt;&lt;/div&gt;&lt;div style=&quot;&quot;&gt;&lt;span style=&quot;background-color: initial;&quot;&gt;&amp;nbsp; tenThuoc: String,&lt;/span&gt;&lt;/div&gt;&lt;div style=&quot;&quot;&gt;&lt;span style=&quot;background-color: initial;&quot;&gt;&amp;nbsp; hanSuDung: Date,&lt;/span&gt;&lt;/div&gt;&lt;div style=&quot;&quot;&gt;&lt;span style=&quot;background-color: initial;&quot;&gt;&amp;nbsp; soLuong: int,&lt;/span&gt;&lt;/div&gt;&lt;div style=&quot;&quot;&gt;&lt;span style=&quot;background-color: initial;&quot;&gt;&amp;nbsp; giaNhap: double,&lt;/span&gt;&lt;/div&gt;&lt;div style=&quot;&quot;&gt;&lt;span style=&quot;background-color: initial;&quot;&gt;&amp;nbsp; giaBan: double,&lt;/span&gt;&lt;/div&gt;&lt;div style=&quot;&quot;&gt;&lt;span style=&quot;background-color: initial;&quot;&gt;&amp;nbsp; moTa: String&lt;/span&gt;&lt;/div&gt;&lt;div&gt;}&lt;/div&gt;&lt;/div&gt;" style="text;html=1;align=left;verticalAlign=middle;resizable=0;points=[];autosize=1;strokeColor=none;fillColor=none;" vertex="1" parent="2SimE3exGpaS9pDIr7dA-2">
          <mxGeometry x="10" y="30" width="130" height="140" as="geometry" />
        </mxCell>
        <mxCell id="2SimE3exGpaS9pDIr7dA-3" value="Nhanvien" style="swimlane;whiteSpace=wrap;html=1;" vertex="1" parent="1">
          <mxGeometry x="50" y="20" width="200" height="250" as="geometry" />
        </mxCell>
        <mxCell id="2SimE3exGpaS9pDIr7dA-11" value="{&lt;div&gt;&amp;nbsp; maNV: String,&lt;/div&gt;&lt;div&gt;&amp;nbsp; tenNV: String,&lt;/div&gt;&lt;div&gt;&amp;nbsp; ngaySinh: Date,&lt;/div&gt;&lt;div&gt;&amp;nbsp; sdt: [&lt;/div&gt;&lt;div&gt;&lt;span style=&quot;white-space: pre;&quot;&gt;&#x9;&lt;/span&gt;&quot;String&quot;,&lt;br&gt;&lt;/div&gt;&lt;div&gt;&lt;span style=&quot;white-space: pre;&quot;&gt;&#x9;&lt;/span&gt;&quot;String&quot;,&lt;br&gt;&lt;/div&gt;&lt;div&gt;&lt;span style=&quot;white-space: pre;&quot;&gt;&#x9;&lt;/span&gt;...&lt;/div&gt;&lt;div&gt;&amp;nbsp; ]&lt;/div&gt;&lt;div&gt;diaChi: String&lt;/div&gt;&lt;div&gt;gioiTinh: boolean&lt;/div&gt;&lt;div&gt;isQuanLy: boolean&lt;br&gt;&lt;div&gt;&lt;br&gt;&lt;div&gt;},&lt;/div&gt;&lt;/div&gt;&lt;/div&gt;" style="text;html=1;align=left;verticalAlign=middle;resizable=0;points=[];autosize=1;strokeColor=none;fillColor=none;" vertex="1" parent="2SimE3exGpaS9pDIr7dA-3">
          <mxGeometry x="10" y="30" width="120" height="210" as="geometry" />
        </mxCell>
        <mxCell id="2SimE3exGpaS9pDIr7dA-5" value="KhachHang" style="swimlane;whiteSpace=wrap;html=1;" vertex="1" parent="1">
          <mxGeometry x="480" y="20" width="200" height="200" as="geometry" />
        </mxCell>
        <mxCell id="2SimE3exGpaS9pDIr7dA-7" value="HoaDon" style="swimlane;whiteSpace=wrap;html=1;" vertex="1" parent="1">
          <mxGeometry x="630" y="280" width="200" height="200" as="geometry" />
        </mxCell>
        <mxCell id="2SimE3exGpaS9pDIr7dA-8" value="ChiTietHoaDon" style="swimlane;whiteSpace=wrap;html=1;" vertex="1" parent="1">
          <mxGeometry x="370" y="520" width="200" height="200" as="geometry" />
        </mxCell>
      </root>
    </mxGraphModel>
  </diagram>
</mxfile>
